<svg id="Layer_1" data-name="Layer 1" xmlns="http://www.w3.org/2000/svg" viewBox="0 0 1080 1080">
  <defs>
    <style>
      .cls-1 {
        fill: #fff;
      }

      .cls-2 {
        fill: none;
      }
    </style>
  </defs>
  <g>
    <g>
      <path class="cls-1" d="M430.63,566.29c0,19-5.56,29.89-25.49,29.89-7.88,0-19-1.39-26.41-4.06V513.68H390V534a56.33,56.33,0,0,1-1.16,12.86c6.37-6.72,13.78-10.08,21.32-10.08C424,536.74,430.63,545.08,430.63,566.29Zm-11.58,0c-.12-14.72-2.32-19.82-12.86-19.82-5.68,0-10.2,3.13-16.34,7.88l.12,30.71a57.5,57.5,0,0,0,14.94,1.73C415.11,586.68,418.93,581.58,419.05,566.29Z"/>
      <path class="cls-1" d="M451.74,578.45c0,4.75,2.55,7.18,7.42,7.18h5.21l1.28,8.7c-2.32,1-7.88,1.5-10.78,1.5-8.69,0-14.25-5.21-14.25-14.83V513.68h11.24Z"/>
      <path class="cls-1" d="M526.7,555.39v39.4h-8.81l-1.27-8.92c-4.18,4.28-12.29,10-22.6,10s-17.26-5.68-17.26-16v-5.91c0-9,5.79-14.13,16-14.13h22.71v-4.41c-.12-6.95-2.55-9.15-11.24-9.15-5.56,0-15.18.7-24,1.39l-1-8.23a185,185,0,0,1,27.46-2.66C519.74,536.74,526.7,541.14,526.7,555.39Zm-30.36,30.94c5.1,0,12.63-2.2,19.12-8V568.25H494.83c-5.21.24-6.72,2.9-6.72,7.19v3C488.11,584,490.66,586.33,496.34,586.33Z"/>
      <path class="cls-1" d="M584.72,539.64l-1.51,7.18c-5.21-.35-11.35-.58-15.29-.58-12.86,0-17.27,4.52-17.27,20.28s4.41,20.27,17.27,20.27a109.23,109.23,0,0,0,16.68-1.27l1,7.53a59.92,59.92,0,0,1-19.7,3.13c-19.81,0-27-7.88-27-29.66s7.3-29.78,27-29.78C571.16,536.74,579,537.43,584.72,539.64Z"/>
      <path class="cls-1" d="M614.24,567h-7.07a77.64,77.64,0,0,1,.58,8.81v19H596.51V513.68h11.24l.11,35.57a64.13,64.13,0,0,1-.69,9.62h7.07l16.91-20.62h13l-17,20.5a23.78,23.78,0,0,1-4.17,4.18v.23A23.19,23.19,0,0,1,627.1,568L646,594.79H633Z"/>
      <path class="cls-1" d="M666.08,578.45c0,4.75,2.55,7.18,7.41,7.18h5.22l1.27,8.7c-2.31,1-7.88,1.5-10.77,1.5-8.69,0-14.26-5.21-14.26-14.83V513.68H666.2Z"/>
      <path class="cls-1" d="M704.62,517.39v6.49c0,2.2-1,3.36-3.25,3.36H696c-2.2,0-3.24-1.16-3.24-3.36v-6.49a2.93,2.93,0,0,1,3.24-3.25h5.33A2.94,2.94,0,0,1,704.62,517.39Zm-.35,77.4H693.15V538.25h11.12Z"/>
      <path class="cls-1" d="M762.45,538.71l-.93,8.11c-7.07-.23-14.37-.58-21.44-.58-10.08,0-13.2.12-13.2,6.26,0,5.44,2.66,5.91,8,7.41l16,3.94c9.15,2.44,13.21,6,13.21,15.88,0,13.9-7.65,16.33-24.56,16.33A151.44,151.44,0,0,1,717,594.44l.81-8.34c5.21.46,12,.58,19.35.58,12.4,0,16-1.16,16-6.95,0-5.22-3.25-5.8-8.57-7.19l-15.76-3.94c-9.39-2.43-12.86-6.83-12.86-16.1,0-12.86,6.6-15.88,22.36-15.76A180,180,0,0,1,762.45,538.71Z"/>
      <path class="cls-1" d="M794.37,546.94v31.51c0,5.33,2,7.18,7.41,7.18H810l1.28,8.7a62.84,62.84,0,0,1-13.33,1.5c-9.61,0-14.71-5.68-14.71-15.87v-33H772.93v-8.12l10.32-.57V521.68h11.12v16.57h17.5v8.69Z"/>
    </g>
    <g>
      <path class="cls-2" d="M282,526.16s-.37.25-.38.48c-.07,10.65-.16,21.3-.1,32a5.35,5.35,0,0,0,1.48,3.27c4.9,5,9.84,10,14.71,14.85a9,9,0,0,0,12.54.09l1.51-1.47a13.65,13.65,0,0,0,.1-19.45Z"/>
      <path class="cls-2" d="M282.79,507.71c6.37,6.82,12.93,13.47,19.89,20.64a2.47,2.47,0,0,0,3.54,0l.15-.15L281.1,503A5.85,5.85,0,0,0,282.79,507.71Z"/>
      <path class="cls-1" d="M315.16,537l-9.05-9h0c-1,1-2.46,1.39-3.43.4-7-7.18-13.52-13.82-19.89-20.65a6.41,6.41,0,0,1-1.61-2.95,8.6,8.6,0,0,0-2.43-4.16l-7.9-7.9a14.19,14.19,0,0,0-2.45,8.73c.14,15.42.28,30.88-.23,46.26-.42,12.91,2.41,22.3,12.44,30.53a171,171,0,0,1,15.95,15.55,10.22,10.22,0,0,0,14.64.28l17.11-16.91a16.55,16.55,0,0,0-.05-23.61l-13.07-12.78a2.41,2.41,0,0,1,0-3.41h0m-3.49,38L310,577a8.71,8.71,0,0,1-12.19-.08c-4.93-4.94-9.93-10-14.88-15a5.35,5.35,0,0,1-1.48-3.27c-.06-10.65,0-21.3.1-32,0-.23.35-.45.38-.48l29.81,29.67A13.71,13.71,0,0,1,311.67,575.38Z"/>
    </g>
    <path class="cls-1" d="M284.92,499.21a58.79,58.79,0,0,1,37.64,0c3.89,1.29,4.82,6,1.88,9.27-6.05,6.76-12.16,12.36-19,19.76l8.32,10L337.46,513a5.4,5.4,0,0,0,.59-1.27c3.6-11.82-1.12-21.49-12.32-25.25A66.29,66.29,0,0,0,292.81,484a73.28,73.28,0,0,0-16.87,5.42,10.68,10.68,0,0,0-4.55,3.7l9.8,10.43A5.23,5.23,0,0,1,284.92,499.21Z"/>
  </g>
</svg>
