<svg width="166" height="35" viewBox="0 0 166 35" fill="none" xmlns="http://www.w3.org/2000/svg">
<path d="M49.6102 25.4366C49.6102 31.2372 47.9127 34.5618 41.8282 34.5618C39.4225 34.5618 36.0276 34.1375 33.7654 33.3223V9.375H37.206V15.5786C37.2389 16.8965 37.1201 18.2139 36.8519 19.5047C38.7966 17.4531 41.0589 16.4273 43.3608 16.4273C47.5861 16.4151 49.6102 18.9613 49.6102 25.4366ZM46.0749 25.4366C46.0382 20.9426 45.3666 19.3856 42.1488 19.3856C40.4147 19.3856 39.0348 20.3412 37.1603 21.7913L37.1969 31.1669C38.6876 31.5419 40.2211 31.7195 41.758 31.6951C44.872 31.6615 46.0382 30.1045 46.0749 25.4366Z" fill="#333333"/>
<path d="M56.0545 29.1489C56.0545 30.5991 56.833 31.341 58.3198 31.341H59.9104L60.3012 33.997C59.5929 34.3023 57.8955 34.455 57.0101 34.455C54.3571 34.455 52.6597 32.8644 52.6597 29.9274V9.375H56.0912L56.0545 29.1489Z" fill="#333333"/>
<path d="M78.9395 22.1085V34.1371H76.2499L75.8622 31.4138C74.586 32.7205 72.1101 34.4668 68.9625 34.4668C65.8149 34.4668 63.6931 32.7327 63.6931 29.5821V27.7778C63.6931 25.0301 65.4608 23.464 68.5778 23.464H75.5111V22.1176C75.4744 19.9958 74.7326 19.3242 72.0796 19.3242C70.3821 19.3242 67.4452 19.5379 64.7525 19.7485L64.4472 17.236C67.2176 16.757 70.0198 16.4855 72.8306 16.4239C76.8147 16.4147 78.9395 17.758 78.9395 22.1085ZM69.6708 31.5543C71.2278 31.5543 73.5267 30.8826 75.508 29.1119V26.0345H69.2098C67.6192 26.1078 67.1582 26.9199 67.1582 28.2296V29.1455C67.1582 30.8429 67.9367 31.5543 69.6708 31.5543Z" fill="#333333"/>
<path d="M96.6527 17.3004L96.1917 19.4924C94.6011 19.3856 92.7266 19.3153 91.5237 19.3153C87.5976 19.3153 86.2513 20.6953 86.2513 25.5067C86.2513 30.3182 87.5976 31.695 91.5237 31.695C93.2286 31.6962 94.931 31.5666 96.616 31.3073L96.9213 33.6062C94.984 34.2585 92.9511 34.5815 90.907 34.5618C84.8591 34.5618 82.6641 32.156 82.6641 25.5067C82.6641 18.8574 84.8927 16.415 90.907 16.415C92.5129 16.415 94.9064 16.6257 96.6527 17.3004Z" fill="#333333"/>
<path d="M105.665 25.6533H103.507C103.617 26.5458 103.676 27.4438 103.684 28.343V34.1436H100.252V9.375H103.684L103.717 20.2343C103.721 21.2172 103.65 22.199 103.507 23.1713H105.665L110.828 16.8761H114.796L109.606 23.1346C109.237 23.6112 108.809 24.0399 108.333 24.4108V24.481C108.818 24.9135 109.242 25.4107 109.591 25.9586L115.361 34.1375H111.392L105.665 25.6533Z" fill="#333333"/>
<path d="M121.491 29.1489C121.491 30.5991 122.269 31.341 123.753 31.341H125.347L125.735 33.997C125.029 34.3023 123.329 34.455 122.447 34.455C119.794 34.455 118.093 32.8644 118.093 29.9274V9.375H121.528L121.491 29.1489Z" fill="#333333"/>
<path d="M133.257 10.5081V12.4895C133.257 13.1611 132.952 13.5152 132.265 13.5152H130.626C129.954 13.5152 129.637 13.1611 129.637 12.4895V10.5081C129.621 10.3743 129.636 10.2387 129.68 10.1115C129.724 9.9842 129.797 9.86857 129.892 9.77318C129.987 9.67779 130.102 9.6051 130.229 9.56055C130.356 9.516 130.492 9.50073 130.626 9.51589H132.253C132.388 9.49882 132.525 9.51262 132.654 9.55627C132.782 9.59991 132.9 9.67225 132.996 9.76781C133.093 9.86338 133.167 9.97966 133.212 10.1079C133.257 10.2361 133.273 10.373 133.257 10.5081ZM133.151 34.1379H129.756V16.8765H133.151V34.1379Z" fill="#333333"/>
<path d="M150.913 17.0165L150.629 19.4925C148.47 19.4223 146.242 19.3154 144.083 19.3154C141.006 19.3154 140.053 19.352 140.053 21.2265C140.053 22.8874 140.866 23.0308 142.496 23.4888L147.381 24.6916C150.174 25.4366 151.413 26.5234 151.413 29.5397C151.413 33.7833 149.078 34.5252 143.915 34.5252C141.614 34.5318 139.314 34.3665 137.037 34.0306L137.284 31.4844C138.875 31.6249 140.948 31.6615 143.192 31.6615C146.978 31.6615 148.077 31.3074 148.077 29.5397C148.077 27.9461 147.084 27.769 145.46 27.3446L140.649 26.1418C137.782 25.3999 136.723 24.0566 136.723 21.2265C136.723 17.3005 138.738 16.3785 143.549 16.4151C146.014 16.4502 148.474 16.6511 150.913 17.0165Z" fill="#333333"/>
<path d="M160.657 19.5291V29.149C160.657 30.7762 161.268 31.341 162.92 31.341H165.429L165.82 33.997C164.484 34.2945 163.119 34.448 161.75 34.455C158.816 34.455 157.259 32.7209 157.259 29.61V19.5352H154.112V17.0563L157.262 16.8822V11.8174H160.657V16.8761H166V19.5291H160.657Z" fill="#333333"/>
<path d="M14.3579 16.4948L11.595 13.7471C11.2897 14.0524 10.844 14.1715 10.5478 13.8692C8.41077 11.6772 6.42026 9.65006 4.47553 7.5649C4.2345 7.31375 4.06483 7.00285 3.984 6.66428C3.86276 6.1789 3.60537 5.73827 3.24214 5.39426L0.830308 2.98242C0.296213 3.76512 0.0334662 4.70135 0.0823322 5.64765C0.125074 10.3553 0.167821 15.0751 0.0121204 19.7706C-0.116103 23.7119 0.747872 26.5787 3.80998 29.0912C5.53458 30.5662 7.16119 32.152 8.67943 33.8386C8.96439 34.1426 9.30735 34.3864 9.68807 34.5557C10.0688 34.725 10.4796 34.8163 10.8962 34.8243C11.3127 34.8323 11.7267 34.7567 12.1136 34.6021C12.5006 34.4475 12.8526 34.2169 13.149 33.9241L18.3725 28.7615C18.8502 28.2902 19.2291 27.7285 19.4873 27.1092C19.7455 26.4899 19.8778 25.8253 19.8763 25.1543C19.8749 24.4833 19.7399 23.8193 19.479 23.2011C19.2182 22.5829 18.8369 22.0228 18.3573 21.5535L14.3671 17.6518C14.2987 17.5835 14.2444 17.5024 14.2074 17.413C14.1704 17.3237 14.1513 17.228 14.1513 17.1313C14.1513 17.0346 14.1704 16.9389 14.2074 16.8496C14.2444 16.7603 14.2987 16.6791 14.3671 16.6108L14.3579 16.4948ZM13.3016 28.212L12.7826 28.7066C12.2824 29.1902 11.6126 29.4585 10.9168 29.4539C10.2211 29.4493 9.55486 29.1723 9.06105 28.6821C7.55595 27.174 6.02947 25.6292 4.51826 24.1027C4.25719 23.8319 4.09759 23.4793 4.06643 23.1044C4.04812 19.853 4.06643 16.6016 4.09696 13.335C4.09696 13.2648 4.20381 13.1976 4.21297 13.1884L13.3138 22.2465C13.708 22.6374 14.0206 23.1028 14.2332 23.6157C14.4458 24.1285 14.5543 24.6785 14.5523 25.2337C14.5503 25.7889 14.4379 26.3381 14.2216 26.8495C14.0053 27.3608 13.6895 27.8239 13.2924 28.212H13.3016Z" fill="#333333"/>
<path d="M5.126 4.95781C8.85292 3.69847 12.8904 3.69847 16.6173 4.95781C17.8049 5.35164 18.0888 6.78958 17.1912 7.7879C15.3442 9.85169 13.4789 11.5613 11.3906 13.8205L13.9307 16.8735L21.1662 9.16783C21.2428 9.04695 21.3033 8.91662 21.3463 8.78011C22.4454 5.17152 21.0044 2.21932 17.5851 1.07141C14.3524 -0.0244697 10.8951 -0.284927 7.53477 0.31428C5.75738 0.655491 4.02797 1.21112 2.38445 1.96898C1.82509 2.20852 1.34392 2.59979 0.995361 3.09857L3.98725 6.28279C4.02779 5.97518 4.15709 5.68605 4.35932 5.45074C4.56156 5.21543 4.82798 5.04414 5.126 4.95781Z" fill="#ED3237"/>
</svg>
