<svg width="432" height="432" viewBox="0 0 432 432" fill="none" xmlns="http://www.w3.org/2000/svg">
<path d="M372.21 171C372.01 196.899 365.648 222.378 353.649 245.331C341.651 268.285 324.362 288.052 303.21 303C302.09 303.774 300.814 304.296 299.472 304.529C298.129 304.761 296.752 304.699 295.437 304.346C294.121 303.993 292.897 303.358 291.852 302.485C290.806 301.611 289.962 300.521 289.38 299.29C288.81 298.08 288.26 296.9 287.75 295.77C276.117 269.143 264.477 242.553 252.83 216C251.53 214.24 249.24 210.66 250.44 207.49C251.31 205.16 253.74 204.58 258.05 202.6C265.92 199.04 273.79 195.54 281.62 191.95L283.46 191.13C286.62 189.71 287.05 186.71 284.41 184.47C263.09 166.47 244.79 153.05 231.53 143.83C204.36 124.99 202.53 124.83 187.88 114.2C175.54 105.326 163.207 96.4562 150.88 87.5895C150.325 87.1993 149.68 86.9567 149.005 86.8846C148.33 86.8125 147.649 86.9131 147.023 87.1772C146.398 87.4412 145.851 87.8599 145.432 88.3939C145.013 88.9278 144.738 89.5595 144.63 90.2295C144.42 91.7095 144.37 93.2295 144.22 94.7695C140.434 132.103 136.677 169.416 132.95 206.71C131.49 221.09 130.04 235.43 128.64 249.81C128.348 251.632 128.184 253.474 128.15 255.32C128.207 255.954 128.414 256.565 128.754 257.103C129.094 257.641 129.558 258.09 130.106 258.413C130.655 258.735 131.273 258.922 131.908 258.958C132.544 258.994 133.179 258.878 133.76 258.62L136.35 257.45C144.48 253.89 152.54 250.2 160.63 246.57C162.48 245.76 164.36 244.99 166.3 244.34C167.142 244.008 168.078 244.008 168.92 244.34C169.727 244.708 170.388 245.334 170.8 246.12C172.94 249.87 174.01 251.78 174.43 253.63C174.43 253.75 184.097 275.713 203.43 319.52C204.063 320.959 204.327 322.533 204.199 324.099C204.071 325.666 203.556 327.176 202.698 328.494C201.841 329.812 200.669 330.895 199.289 331.647C197.908 332.398 196.362 332.795 194.79 332.8H55.5702C53.0958 332.8 50.7226 331.817 48.9729 330.067C47.2232 328.317 46.2402 325.944 46.2402 323.47V16.0895C46.2429 13.6168 47.227 11.2462 48.9765 9.49869C50.7259 7.75114 53.0975 6.76953 55.5702 6.76953H206.21C296.53 6.76953 372.88 80.6595 372.21 171Z" fill="#00A1E5"/>
<path d="M381.24 400.219C382.792 401.148 384.038 402.509 384.827 404.136C385.616 405.763 385.912 407.584 385.679 409.377C385.447 411.17 384.695 412.856 383.518 414.228C382.34 415.6 380.787 416.598 379.05 417.099C350.13 425.459 302.15 433.339 264.81 408.309C247.5 396.719 234.28 379.309 224.9 363.619C224.099 362.294 223.642 360.789 223.572 359.242C223.502 357.695 223.821 356.155 224.499 354.763C225.177 353.37 226.193 352.17 227.455 351.272C228.716 350.373 230.183 349.805 231.72 349.619C254.281 346.835 276.109 339.801 296.05 328.889C298.079 327.796 300.443 327.497 302.68 328.052C304.917 328.606 306.867 329.975 308.15 331.889C327.207 359.748 352.16 383.073 381.24 400.209V400.219Z" fill="#00A1E5"/>
<path d="M146.89 353.15H49.8402C47.852 353.15 46.2402 354.762 46.2402 356.75V421.63C46.2402 423.619 47.852 425.23 49.8402 425.23H146.89C148.878 425.23 150.49 423.619 150.49 421.63V356.75C150.49 354.762 148.878 353.15 146.89 353.15Z" fill="#FFA300"/>
</svg>
