<svg width="214" height="40" viewBox="0 0 214 40" fill="none" xmlns="http://www.w3.org/2000/svg">
    <g transform="matrix(1,0,0,1,-12.2814,4.87532)">
        <clipPath id="_clip1">
            <rect x="51.236" y="10.662" width="161.9" height="21.537"/>
        </clipPath>
        <g clip-path="url(#_clip1)">
            <path d="M42.619,12.087C43.503,12.087 44.369,12.209 45.216,12.454C46.063,12.698 46.825,13.075 47.502,13.583C48.199,14.091 48.744,14.731 49.14,15.502C49.554,16.255 49.761,17.159 49.761,18.212C49.761,19.323 49.478,20.283 48.914,21.092C48.368,21.882 47.644,22.503 46.74,22.955C45.837,23.388 44.858,23.642 43.804,23.717L50.608,31L45.442,31L38.864,23.265L38.864,31L34.941,31L34.941,12.087L42.619,12.087ZM38.864,15.757L38.864,20.527C39.316,20.678 39.815,20.8 40.361,20.894C40.925,20.969 41.49,21.007 42.054,21.007C43.183,21.007 44.077,20.781 44.736,20.33C45.413,19.859 45.752,19.2 45.752,18.354C45.752,17.431 45.395,16.773 44.68,16.378C43.983,15.964 43.127,15.757 42.111,15.757L38.864,15.757ZM60.629,14.274C62.222,14.274 63.589,14.618 64.73,15.307C65.892,15.996 66.775,16.954 67.378,18.181C68.002,19.386 68.314,20.786 68.314,22.379L68.314,24.122L56.496,24.122C56.711,25.22 57.25,26.103 58.111,26.77C58.972,27.437 60.026,27.771 61.275,27.771C62.459,27.771 63.535,27.534 64.504,27.061C65.473,26.587 66.248,26.103 66.829,25.608L66.797,29.418C66.28,29.87 65.505,30.333 64.472,30.806C63.46,31.258 62.341,31.484 61.114,31.484C59.499,31.484 58.024,31.118 56.69,30.387C55.377,29.655 54.322,28.654 53.525,27.384C52.75,26.113 52.363,24.66 52.363,23.024C52.363,21.431 52.718,19.978 53.429,18.665C54.139,17.352 55.118,16.297 56.367,15.501C57.615,14.683 59.036,14.274 60.629,14.274ZM60.532,17.858C59.521,17.858 58.67,18.17 57.981,18.794C57.292,19.419 56.819,20.258 56.561,21.313L64.375,21.313C64.289,20.151 63.858,19.29 63.083,18.73C62.308,18.149 61.458,17.858 60.532,17.858ZM77.323,14.274C78.335,14.274 79.271,14.425 80.132,14.726C80.993,15.027 81.661,15.372 82.134,15.759L82.134,19.376C81.618,19.031 80.983,18.698 80.229,18.375C79.497,18.052 78.733,17.89 77.937,17.89C77.162,17.89 76.548,18.063 76.096,18.407C75.644,18.751 75.418,19.16 75.418,19.634C75.418,19.978 75.547,20.301 75.805,20.603C76.064,20.883 76.559,21.13 77.291,21.345L79.131,21.959C81.607,22.691 82.845,24.122 82.845,26.253C82.845,27.265 82.554,28.169 81.973,28.966C81.413,29.741 80.649,30.354 79.68,30.806C78.733,31.258 77.678,31.484 76.516,31.484C75.418,31.484 74.352,31.312 73.319,30.968C72.286,30.623 71.5,30.247 70.962,29.838L70.962,26.253C71.371,26.533 71.866,26.802 72.447,27.061C73.028,27.319 73.631,27.534 74.256,27.706C74.88,27.857 75.45,27.933 75.967,27.933C76.785,27.933 77.409,27.793 77.84,27.513C78.292,27.211 78.518,26.792 78.518,26.253C78.518,25.844 78.335,25.522 77.969,25.285C77.603,25.048 77.065,24.811 76.354,24.574L74.352,23.864C73.104,23.455 72.243,22.874 71.769,22.12C71.296,21.367 71.059,20.474 71.059,19.44C71.059,18.407 71.317,17.514 71.834,16.76C72.372,15.985 73.115,15.383 74.062,14.952C75.009,14.5 76.096,14.274 77.323,14.274ZM92.241,9.947L92.241,14.694L96.762,14.694L96.762,18.116L92.241,18.116L92.241,25.156C92.241,25.887 92.402,26.469 92.725,26.899C93.07,27.308 93.576,27.513 94.243,27.513C94.824,27.513 95.319,27.448 95.728,27.319C96.159,27.19 96.557,27.007 96.923,26.77L96.923,30.031C96.514,30.44 95.997,30.785 95.373,31.065C94.77,31.344 94.006,31.484 93.081,31.484C91.617,31.484 90.422,31.022 89.496,30.096C88.592,29.149 88.14,27.857 88.14,26.221L88.14,18.116L85.202,18.116L85.202,16.017C86.235,15.652 87.182,14.963 88.043,13.951C88.926,12.939 89.625,11.605 90.142,9.947L92.241,9.947ZM111.389,19.279C110.7,18.891 109.979,18.698 109.225,18.698C108.278,18.698 107.493,19.01 106.868,19.634C106.244,20.237 105.695,20.99 105.221,21.894L105.221,31L101.121,31L101.121,14.694L105.221,14.694L105.221,17.761C105.781,16.793 106.438,15.985 107.191,15.339C107.966,14.694 108.838,14.371 109.807,14.371C110.388,14.371 110.915,14.468 111.389,14.661L111.389,19.279ZM128.954,14.694L128.954,24.413C128.954,25.855 128.632,27.104 127.986,28.159C127.34,29.192 126.457,29.988 125.338,30.548C124.24,31.108 122.992,31.388 121.592,31.388C120.172,31.388 118.902,31.108 117.782,30.548C116.684,29.988 115.813,29.192 115.167,28.159C114.542,27.104 114.23,25.855 114.23,24.413L114.23,14.694L118.363,14.694L118.396,23.67C118.396,24.94 118.686,25.887 119.268,26.512C119.849,27.136 120.624,27.448 121.592,27.448C122.54,27.448 123.304,27.136 123.885,26.512C124.488,25.887 124.789,24.94 124.789,23.67L124.789,14.694L128.954,14.694ZM141.063,14.274C142.269,14.274 143.259,14.468 144.034,14.855C144.809,15.243 145.422,15.619 145.874,15.985L145.874,19.763C145.315,19.354 144.68,19.01 143.969,18.73C143.28,18.45 142.43,18.31 141.418,18.31C140.6,18.31 139.836,18.515 139.126,18.924C138.437,19.333 137.888,19.882 137.479,20.57C137.07,21.259 136.865,22.045 136.865,22.927C136.865,24.262 137.296,25.36 138.157,26.221C139.018,27.082 140.105,27.513 141.418,27.513C142.43,27.513 143.28,27.384 143.969,27.125C144.68,26.845 145.315,26.501 145.874,26.092L145.874,29.838C145.422,30.225 144.809,30.602 144.034,30.968C143.259,31.312 142.269,31.484 141.063,31.484C139.406,31.484 137.931,31.097 136.639,30.322C135.369,29.525 134.358,28.481 133.604,27.19C132.872,25.877 132.506,24.456 132.506,22.927C132.506,21.787 132.711,20.7 133.12,19.666C133.55,18.633 134.153,17.718 134.928,16.922C135.703,16.104 136.607,15.458 137.64,14.984C138.695,14.511 139.836,14.274 141.063,14.274ZM155.432,9.947L155.432,14.694L159.953,14.694L159.953,18.116L155.432,18.116L155.432,25.156C155.432,25.887 155.594,26.469 155.917,26.899C156.261,27.308 156.767,27.513 157.434,27.513C158.015,27.513 158.51,27.448 158.919,27.319C159.35,27.19 159.748,27.007 160.114,26.77L160.114,30.031C159.705,30.44 159.189,30.785 158.564,31.065C157.962,31.344 157.197,31.484 156.272,31.484C154.808,31.484 153.613,31.022 152.688,30.096C151.783,29.149 151.331,27.857 151.331,26.221L151.331,18.116L148.393,18.116L148.393,16.017C149.426,15.652 150.373,14.963 151.234,13.951C152.117,12.939 152.817,11.605 153.333,9.947L155.432,9.947ZM178.713,14.694L178.713,24.413C178.713,25.855 178.39,27.104 177.744,28.159C177.099,29.192 176.216,29.988 175.097,30.548C173.999,31.108 172.75,31.388 171.351,31.388C169.93,31.388 168.66,31.108 167.541,30.548C166.443,29.988 165.571,29.192 164.925,28.159C164.301,27.104 163.989,25.855 163.989,24.413L163.989,14.694L168.122,14.694L168.154,23.67C168.154,24.94 168.445,25.887 169.026,26.512C169.607,27.136 170.382,27.448 171.351,27.448C172.298,27.448 173.062,27.136 173.644,26.512C174.246,25.887 174.548,24.94 174.548,23.67L174.548,14.694L178.713,14.694ZM193.663,19.279C192.975,18.891 192.253,18.698 191.5,18.698C190.553,18.698 189.767,19.01 189.143,19.634C188.519,20.237 187.97,20.99 187.496,21.894L187.496,31L183.395,31L183.395,14.694L187.496,14.694L187.496,17.761C188.056,16.793 188.712,15.985 189.466,15.339C190.241,14.694 191.112,14.371 192.081,14.371C192.662,14.371 193.19,14.468 193.663,14.661L193.663,19.279ZM203.964,14.274C205.557,14.274 206.924,14.618 208.065,15.307C209.227,15.996 210.11,16.954 210.712,18.181C211.337,19.386 211.649,20.786 211.649,22.379L211.649,24.122L199.831,24.122C200.046,25.22 200.584,26.103 201.445,26.77C202.306,27.437 203.361,27.771 204.61,27.771C205.794,27.771 206.87,27.534 207.839,27.061C208.807,26.587 209.582,26.103 210.163,25.608L210.131,29.418C209.615,29.87 208.84,30.333 207.806,30.806C206.795,31.258 205.675,31.484 204.448,31.484C202.834,31.484 201.359,31.118 200.024,30.387C198.711,29.655 197.657,28.654 196.86,27.384C196.085,26.113 195.698,24.66 195.698,23.024C195.698,21.431 196.053,19.978 196.763,18.665C197.474,17.352 198.453,16.297 199.702,15.501C200.95,14.683 202.371,14.274 203.964,14.274ZM203.867,17.858C202.855,17.858 202.005,18.17 201.316,18.794C200.627,19.419 200.154,20.258 199.895,21.313L207.709,21.313C207.623,20.151 207.193,19.29 206.418,18.73C205.643,18.149 204.793,17.858 203.867,17.858Z" style="fill:rgb(0,157,223);fill-rule:nonzero;"/>
        </g>
    </g>
    <g transform="matrix(0.0793255,0,0,0.0793255,8.57199,3.23297)">
        <path d="M372.21,171C371.804,223.5 346.085,272.7 303.21,303C301.641,304.085 299.777,304.667 297.869,304.667C294.244,304.667 290.929,302.567 289.38,299.29C288.81,298.08 288.26,296.9 287.75,295.77C276.117,269.143 264.477,242.553 252.83,216C251.53,214.24 249.24,210.66 250.44,207.49C251.31,205.16 253.74,204.58 258.05,202.6C265.92,199.04 273.79,195.54 281.62,191.95L283.46,191.13C286.62,189.71 287.05,186.71 284.41,184.47C263.09,166.47 244.79,153.05 231.53,143.83C204.36,124.99 202.53,124.83 187.88,114.2C175.54,105.327 163.207,96.457 150.88,87.59C150.206,87.117 149.403,86.862 148.58,86.862C146.623,86.862 144.939,88.298 144.63,90.23C144.42,91.71 144.37,93.23 144.22,94.77C140.433,132.103 136.677,169.417 132.95,206.71C131.49,221.09 130.04,235.43 128.64,249.81C128.348,251.633 128.184,253.474 128.15,255.32C128.333,257.373 130.073,258.965 132.134,258.965C132.694,258.965 133.248,258.848 133.76,258.62L136.35,257.45C144.48,253.89 152.54,250.2 160.63,246.57C162.48,245.76 164.36,244.99 166.3,244.34C167.142,244.009 168.078,244.009 168.92,244.34C169.727,244.708 170.388,245.335 170.8,246.12C172.94,249.87 174.01,251.78 174.43,253.63C174.43,253.75 184.097,275.713 203.43,319.52C203.958,320.721 204.23,322.018 204.23,323.33C204.23,328.514 199.974,332.784 194.79,332.8L55.57,332.8C50.452,332.8 46.24,328.588 46.24,323.47L46.24,16.09C46.245,10.975 50.455,6.77 55.57,6.77L206.21,6.77C296.53,6.77 372.88,80.66 372.21,171Z" style="fill:rgb(0,161,229);fill-rule:nonzero;"/>
    </g>
    <g transform="matrix(0.0793255,0,0,0.0793255,8.57199,3.23297)">
        <path d="M381.24,400.22C384.038,401.894 385.756,404.924 385.756,408.184C385.756,412.306 383.01,415.957 379.05,417.1C350.13,425.46 302.15,433.34 264.81,408.31C247.5,396.72 234.28,379.31 224.9,363.62C224.025,362.173 223.562,360.514 223.562,358.823C223.562,354.156 227.087,350.18 231.72,349.62C254.28,346.836 276.109,339.802 296.05,328.89C300.232,326.635 305.505,327.943 308.15,331.89C327.206,359.748 352.161,383.074 381.24,400.21L381.24,400.22Z" style="fill:rgb(0,161,229);fill-rule:nonzero;"/>
    </g>
    <g transform="matrix(0.0793255,0,0,0.0793255,8.57199,3.23297)">
        <path d="M150.49,389.19C150.49,369.299 134.341,353.15 114.45,353.15L82.28,353.15C62.389,353.15 46.24,369.299 46.24,389.19C46.24,409.081 62.389,425.23 82.28,425.23L114.45,425.23C134.341,425.23 150.49,409.081 150.49,389.19Z" style="fill:rgb(255,163,0);fill-rule:nonzero;"/>
    </g>
</svg>
